<?xml version="1.0" encoding="utf-8"?>
<!-- Generator: Adobe Illustrator 25.2.1, SVG Export Plug-In . SVG Version: 6.00 Build 0)  -->
<svg version="1.1" id="ae5f5559-570c-4c14-9324-22f1786600a2"
	 xmlns="http://www.w3.org/2000/svg" xmlns:xlink="http://www.w3.org/1999/xlink" x="0px" y="0px" viewBox="0 0 1015.1 526"
	 style="enable-background:new 0 0 1015.1 526;" xml:space="preserve">
<style type="text/css">
	.st0{fill:#3F3D56;stroke:url(#SVGID_1_);stroke-width:1;stroke-miterlimit:10.0003;}
	.st1{fill:#3F3D56;stroke:url(#SVGID_2_);stroke-width:1;stroke-miterlimit:10.0003;}
	.st2{fill:#0D82D4;}
	.st3{fill:#3F3D56;}
	.st4{fill:#FFB8B8;}
	.st5{fill:#2F2E41;}
	.st6{fill:#D0CDE1;}
	.st7{opacity:0.2;enable-background:new    ;}
</style>
<linearGradient id="SVGID_1_" gradientUnits="userSpaceOnUse" x1="380.771" y1="595.3579" x2="976.0456" y2="595.3579" gradientTransform="matrix(0.2721 -0.9623 -0.9623 -0.2721 1046.7167 1037.9108)">
	<stop  offset="2.494225e-07" style="stop-color:#FFFFFF"/>
	<stop  offset="1" style="stop-color:#FAFAFA;stop-opacity:0.1"/>
</linearGradient>
<rect x="508.2" y="-43.1" transform="matrix(0.2721 -0.9623 0.9623 0.2721 264.5492 795.9564)" class="st0" width="300.3" height="532.4"/>
<linearGradient id="SVGID_2_" gradientUnits="userSpaceOnUse" x1="380.771" y1="596.1579" x2="976.0456" y2="596.1579" gradientTransform="matrix(0.2721 -0.9623 -0.9623 -0.2721 1047.4366 1037.3661)">
	<stop  offset="2.494225e-07" style="stop-color:#FFFFFF"/>
	<stop  offset="1" style="stop-color:#FAFAFA;stop-opacity:0.1"/>
</linearGradient>
<rect x="508.2" y="-43.9" transform="matrix(0.2721 -0.9623 0.9623 0.2721 265.2465 795.3536)" class="st1" width="300.3" height="532.4"/>
<circle class="st2" cx="451.9" cy="18.2" r="4.2"/>
<circle class="st2" cx="465" cy="21.9" r="4.2"/>
<circle class="st2" cx="478.1" cy="25.6" r="4.2"/>
<path class="st2" d="M715,189.5c-6.9-1.3-13.9-1.1-20.7,0.5c2-6.8,2.5-13.9,1.5-20.9c-7,2.5-13.3,6.6-18.5,11.9
	c-1.6-7.3-4.9-14-9.5-19.9c-4.5,5.4-7.8,11.8-9.7,18.6c-4.9-4.9-10.9-8.8-17.4-11.3c0,0-3.1,15.7,4.3,28.6
	c6.6,11.5,19.3,16.8,22.1,17.9l0.1,0.1l0,0c0.3,0.1,0.4,0.2,0.4,0.2s0.1-0.3,0.1-0.8c0-0.1,0.1-0.1,0.2-0.2c0,0.1,0,0.2,0,0.2
	c-0.2,0.5-0.3,0.8-0.3,0.8s0.2,0,0.4,0.1v0.1h0.1c2.9,0.5,16.5,2.6,28.2-3.7C709.4,204.5,715,189.5,715,189.5z"/>
<circle class="st2" cx="689.6" cy="138.4" r="11"/>
<rect x="657.5" y="66" transform="matrix(0.2721 -0.9623 0.9623 0.2721 252.0912 809.7436)" class="st2" width="7.5" height="344.5"/>
<rect x="508.2" y="239.5" transform="matrix(0.2721 -0.9623 0.9623 0.2721 132.4839 713.5884)" class="st2" width="59.4" height="59.4"/>
<rect x="614.4" y="269.5" transform="matrix(0.2721 -0.9623 0.9623 0.2721 180.9808 837.5608)" class="st2" width="59.4" height="59.4"/>
<rect x="720.6" y="299.5" transform="matrix(0.2721 -0.9623 0.9623 0.2721 229.365 961.5768)" class="st2" width="59.4" height="59.4"/>
<rect x="523.4" y="289.5" transform="matrix(0.2721 -0.9623 0.9623 0.2721 83.0228 732.9324)" class="st2" width="5.1" height="44.1"/>
<rect x="629.5" y="319.6" transform="matrix(0.2721 -0.9623 0.9623 0.2721 131.283 856.8721)" class="st2" width="5.1" height="44.1"/>
<rect x="735.6" y="349.6" transform="matrix(0.2721 -0.9623 0.9623 0.2721 179.6674 980.8883)" class="st2" width="5.1" height="44.1"/>
<path class="st3" d="M685.7,434h63.8v26.7h-37.1v26.7h37.1V514h-63.8V434z M762.2,434H826v23.2h-37.1v4.6H826v53.3h-63.8v-24.3h37.1
	v-4.6h-37.1V434L762.2,434z M838.8,434h63.8v23.2h-37.1v4.6h37.1v53.3h-63.8v-24.3h37.1v-4.6h-37.1V434L838.8,434z"/>
<path class="st3" d="M200.2,336.3h26.3v26h24.1v-26h26.3V415h-26.3v-26.4h-24.1V415h-26.3L200.2,336.3L200.2,336.3z M311.5,362.4
	h-23.2v-26.1H361v26.1h-23.2V415h-26.3V362.4L311.5,362.4L311.5,362.4z M372.5,336.3h27.4l16.9,27.7l16.9-27.7h27.4V415h-26.2v-39
	l-18.1,28h-0.5l-18.1-28v39h-25.7L372.5,336.3L372.5,336.3z M474.2,336.3h26.3V389h37v26h-63.3V336.3L474.2,336.3z"/>
<polygon class="st4" points="132,421.7 129.9,446.1 147.2,444.7 147.2,423.8 "/>
<polygon class="st4" points="116.2,421.7 118.4,446.1 101.1,444.7 101.1,423.8 "/>
<path class="st5" d="M161.6,233.9c0,0,5.8,34.5,5.8,39.6s-2.2,37.4-5.8,43.9s-4.3,9.4-2.9,12.2s0.7,2.2,0,4.3s-2.2,1.4,0,4.3
	c1.8,2.6,1.8,6,0,8.6c-1.4,2.2,2.9,60.4-2.9,64.8s-7.2,18.7-7.2,18.7l-18.7-2.2v-15.8c0,0-4.3-11.5-1.4-18.7s4.3-45.3,4.3-45.3
	s-0.7-3.6,0-5.8s0-3.6-1.4-4.3s-2.2-3.6-2.2-3.6l-2.2-52.5l-8.6,51.8c0,0,8.6,70.5,0,79.9v16.6H99.7l2.9-18c0,0-5.8-16.6-2.9-20.1
	S91,331,92.5,328.8s0.7-2.9,0-4.3s-2.9-2.9-2.2-4.3s0-4.3,0-4.3s-13.7-67.6-7.2-74.1C89.6,235.3,161.6,233.9,161.6,233.9z"/>
<path class="st5" d="M134.2,436.8c0,0,1.4-6.9,13-4.5c0,0,2.9,6,2.9,8.8s2.9,22.3,2.9,22.3s11.5,19.4-2.9,19.4s-19.4-5-20.1-10.1
	s0.7-6.5-2.2-8.6s-4.3-2.2-3.6-5s2.2-17.3,2.2-17.3s0.7-10.8,4.7-7.9l4,2.9"/>
<path class="st5" d="M114.1,436.8c0,0-1.4-6.9-13-4.5c0,0-2.9,6-2.9,8.8s-2.9,22.3-2.9,22.3s-11.5,19.4,2.9,19.4s19.4-5,20.1-10.1
	s-0.7-6.5,2.2-8.6s4.3-2.2,3.6-5s-2.2-17.3-2.2-17.3s-0.7-10.8-4.7-7.9l-4,2.9"/>
<circle class="st4" cx="134.9" cy="82" r="19.4"/>
<path class="st4" d="M119.1,84.9c0,0-7.9,30.9-9.4,31.7s33.1,3.6,33.1,3.6s-8.6-26.6,0-30.9L119.1,84.9z"/>
<path class="st6" d="M114,103.8L114,103.8l-23.7,16.4L94.6,249c0,0,31.7-3.6,38.9-2.9s30.2-6.5,30.2-6.5l-10.1-121
	c-0.4-4.9-4.3-8.7-9.2-9.1l-4.3-0.3c0,0-4.3,10.7-17.3,5.2C118.3,112.4,115.1,108.5,114,103.8z"/>
<path class="st5" d="M114.6,102.6l-29.3,14l-5.8,82.8c0,0-11.5,49.7-2.2,64c9.4,14.4,25.2,15.8,25.2,15.8s20.9-82.8,15.1-110.8
	S114.6,102.6,114.6,102.6z"/>
<path class="st4" d="M59.4,227.4v10.8c0,0-4.3,23.7,9.4,23s7.2-25.9,7.2-25.9l-4.3-7.9L59.4,227.4z"/>
<path class="st4" d="M186,249l-1.4,12.2c0,0,7.2,24.5-6.5,25.2s-3.7-25-3.7-25l4.5-13.8L186,249z"/>
<path class="st5" d="M139.7,106.7L139.7,106.7c13.1,3.2,25.3,9.5,35.4,18.4l0.1,0.1l-10.1,53.3l-1.4,19.4c0,0,26.6,95-4.3,81.3
	c0,0-26.6-82.8-23-120.9S139.7,106.7,139.7,106.7z"/>
<path class="st5" d="M165.9,124.5c0.7-0.7,9.4,1,9.4,1s15.8,55.8,15.8,65.2s2.2,62.6,2.2,62.6l-19,1.9l-15.4-74L165.9,124.5z"/>
<path class="st5" d="M90.3,116.6h-5c0,0-14.4,5.8-15.1,12.2c-0.7,6.4-20.1,72-20.1,72l5,33.1l18.7-2.9l3.6-36.7L96.1,154L90.3,116.6
	z"/>
<path class="st5" d="M131.2,87.4l0.7-5.2c0.2-1.2,0.9-2.8,2.1-2.5c1,0.3,3.2,1.1,3.5,0.9c1.4-1,3.4,0.7,4.9-0.1
	c0.6-0.4,1-1.1,1.7-1.2c0.5,0,0.9,0.2,1.2,0.6c0.9,0.8,2,1.4,3.2,1.8c1.2,0.3,2.5,0,3.4-0.9c0.2-0.2,0.4-0.4,0.6-0.6
	c0.3-0.1,0.6-0.1,0.9,0l3.7,1c1.1-4,0.4-8.2-1.9-11.6c-1.5-2-3.3-3.8-5.4-5.2c-2.3-1.7-4.6-3.4-7-4.9c-2.6-1.8-5.5-3.1-8.6-3.7
	c-3.1-0.5-6.6,0.4-8.5,2.8c-0.9-0.7-1.6-1.6-2-2.7c-0.8,0.8-0.9,2-0.1,2.9c0.1,0.1,0.2,0.2,0.3,0.2l-3.1-2c-0.9,0.9,0.8,2.6,0.1,3.6
	c-0.2,0.3-0.5,0.4-0.8,0.5c-1.7,0.7-3.2,1.6-4.6,2.9c-1.7,1.9-2.9,4.2-3.6,6.6c-1.9,5.3-3.2,11.4-0.6,16.4c0.3,0.6,4.2,9.9,4.8,10.2
	c1.8,1.2,0.6-1.7,1.9,0c1,1.4,0.8-3.9,2.3-2.7c1.2,0.8,2.8,0.9,4,0.2c0.6-0.4,0.4-2.8,0.1-5c-0.2-1.4,0.7-2.7,2.1-2.9
	c0.3,0,0.7,0,1,0C129.3,87.3,131.1,87.7,131.2,87.4z"/>
<polygon class="st7" points="167.7,189.6 175.6,255.1 170.5,255.1 "/>
<polygon class="st7" points="84.2,164.4 80.2,189.6 87.8,164.4 85.6,164.4 "/>
<g>
	<image style="overflow:visible;" width="979" height="582" xlink:href="AC0C0B0E.png"  transform="matrix(1 0 0 1 22 -24)">
	</image>
</g>
</svg>
